<mxfile><diagram id="kdDpR8zDXXkgAigDfH7w" name="Page-1"><mxGraphModel dx="1956" dy="900" grid="1" gridSize="10" guides="1" tooltips="1" connect="1" arrows="1" fold="1" page="1" pageScale="1" pageWidth="1700" pageHeight="1100" math="0" shadow="0"><root><mxCell id="0"/><mxCell id="1" parent="0"/><mxCell id="7" style="edgeStyle=orthogonalEdgeStyle;rounded=0;orthogonalLoop=1;jettySize=auto;html=1;entryX=0;entryY=0.5;entryDx=0;entryDy=0;" parent="1" source="2" target="6" edge="1"><mxGeometry relative="1" as="geometry"/></mxCell><mxCell id="2" value="Input Queue&lt;br&gt;(kafka)" style="outlineConnect=0;dashed=0;verticalLabelPosition=bottom;verticalAlign=top;align=center;html=1;shape=mxgraph.aws3.queue;fillColor=#D9A741;gradientColor=none;" parent="1" vertex="1"><mxGeometry x="40" y="490" width="73.5" height="48" as="geometry"/></mxCell><mxCell id="11" style="edgeStyle=orthogonalEdgeStyle;rounded=0;orthogonalLoop=1;jettySize=auto;html=1;entryX=0.5;entryY=1;entryDx=0;entryDy=0;" parent="1" source="6" target="8" edge="1"><mxGeometry relative="1" as="geometry"/></mxCell><mxCell id="13" style="edgeStyle=orthogonalEdgeStyle;rounded=0;orthogonalLoop=1;jettySize=auto;html=1;entryX=0.5;entryY=1;entryDx=0;entryDy=0;exitX=0.75;exitY=0;exitDx=0;exitDy=0;" parent="1" source="6" target="12" edge="1"><mxGeometry relative="1" as="geometry"/></mxCell><mxCell id="15" style="edgeStyle=orthogonalEdgeStyle;rounded=0;orthogonalLoop=1;jettySize=auto;html=1;entryX=0;entryY=0.5;entryDx=0;entryDy=0;entryPerimeter=0;" parent="1" source="6" target="14" edge="1"><mxGeometry relative="1" as="geometry"/></mxCell><mxCell id="6" value="Features&lt;br&gt;(Worker)" style="rounded=1;whiteSpace=wrap;html=1;" parent="1" vertex="1"><mxGeometry x="220" y="484" width="120" height="60" as="geometry"/></mxCell><mxCell id="8" value="Flight Plan Service" style="rounded=0;whiteSpace=wrap;html=1;" parent="1" vertex="1"><mxGeometry x="140" y="340" width="120" height="60" as="geometry"/></mxCell><mxCell id="12" value="Metropolis" style="rounded=0;whiteSpace=wrap;html=1;" parent="1" vertex="1"><mxGeometry x="250" y="250" width="120" height="60" as="geometry"/></mxCell><mxCell id="17" value="" style="edgeStyle=orthogonalEdgeStyle;rounded=0;orthogonalLoop=1;jettySize=auto;html=1;" parent="1" source="14" target="16" edge="1"><mxGeometry relative="1" as="geometry"/></mxCell><mxCell id="14" value="triage&lt;br&gt;(RSMQ)" style="outlineConnect=0;dashed=0;verticalLabelPosition=bottom;verticalAlign=top;align=center;html=1;shape=mxgraph.aws3.queue;fillColor=#D9A741;gradientColor=none;" parent="1" vertex="1"><mxGeometry x="430" y="490" width="73.5" height="48" as="geometry"/></mxCell><mxCell id="21" style="edgeStyle=orthogonalEdgeStyle;rounded=0;orthogonalLoop=1;jettySize=auto;html=1;entryX=0;entryY=0.5;entryDx=0;entryDy=0;entryPerimeter=0;" parent="1" source="16" target="18" edge="1"><mxGeometry relative="1" as="geometry"/></mxCell><mxCell id="22" style="edgeStyle=orthogonalEdgeStyle;rounded=0;orthogonalLoop=1;jettySize=auto;html=1;entryX=0;entryY=0.5;entryDx=0;entryDy=0;entryPerimeter=0;" parent="1" source="16" target="20" edge="1"><mxGeometry relative="1" as="geometry"/></mxCell><mxCell id="24" style="edgeStyle=orthogonalEdgeStyle;rounded=0;orthogonalLoop=1;jettySize=auto;html=1;entryX=0;entryY=0.5;entryDx=0;entryDy=0;entryPerimeter=0;" parent="1" source="16" target="19" edge="1"><mxGeometry relative="1" as="geometry"/></mxCell><mxCell id="47" style="edgeStyle=orthogonalEdgeStyle;rounded=0;orthogonalLoop=1;jettySize=auto;html=1;entryX=0.5;entryY=1;entryDx=0;entryDy=0;entryPerimeter=0;" parent="1" source="16" target="39" edge="1"><mxGeometry relative="1" as="geometry"><Array as="points"><mxPoint x="630" y="790"/><mxPoint x="1440" y="790"/></Array></mxGeometry></mxCell><mxCell id="16" value="Triage&lt;br&gt;(Worker)" style="rounded=1;whiteSpace=wrap;html=1;" parent="1" vertex="1"><mxGeometry x="570" y="484" width="120" height="60" as="geometry"/></mxCell><mxCell id="26" value="" style="edgeStyle=orthogonalEdgeStyle;rounded=0;orthogonalLoop=1;jettySize=auto;html=1;" parent="1" source="18" target="25" edge="1"><mxGeometry relative="1" as="geometry"/></mxCell><mxCell id="44" style="edgeStyle=orthogonalEdgeStyle;rounded=0;orthogonalLoop=1;jettySize=auto;html=1;entryX=0.5;entryY=1;entryDx=0;entryDy=0;entryPerimeter=0;" parent="1" source="18" target="43" edge="1"><mxGeometry relative="1" as="geometry"><Array as="points"><mxPoint x="780" y="250"/><mxPoint x="740" y="250"/></Array></mxGeometry></mxCell><mxCell id="18" value="optimizer&lt;br&gt;(RSMQ)" style="outlineConnect=0;dashed=0;verticalLabelPosition=bottom;verticalAlign=top;align=center;html=1;shape=mxgraph.aws3.queue;fillColor=#D9A741;gradientColor=none;" parent="1" vertex="1"><mxGeometry x="770" y="340" width="73.5" height="48" as="geometry"/></mxCell><mxCell id="30" value="" style="edgeStyle=orthogonalEdgeStyle;rounded=0;orthogonalLoop=1;jettySize=auto;html=1;" parent="1" source="19" target="29" edge="1"><mxGeometry relative="1" as="geometry"/></mxCell><mxCell id="19" value="shadow&lt;br&gt;(RSMQ)" style="outlineConnect=0;dashed=0;verticalLabelPosition=bottom;verticalAlign=top;align=center;html=1;shape=mxgraph.aws3.queue;fillColor=#D9A741;gradientColor=none;" parent="1" vertex="1"><mxGeometry x="770" y="610" width="73.5" height="48" as="geometry"/></mxCell><mxCell id="28" value="" style="edgeStyle=orthogonalEdgeStyle;rounded=0;orthogonalLoop=1;jettySize=auto;html=1;" parent="1" source="20" target="27" edge="1"><mxGeometry relative="1" as="geometry"/></mxCell><mxCell id="20" value="fallback&lt;br&gt;(RSMQ)" style="outlineConnect=0;dashed=0;verticalLabelPosition=bottom;verticalAlign=top;align=center;html=1;shape=mxgraph.aws3.queue;fillColor=#D9A741;gradientColor=none;" parent="1" vertex="1"><mxGeometry x="770" y="490" width="73.5" height="48" as="geometry"/></mxCell><mxCell id="32" style="edgeStyle=orthogonalEdgeStyle;rounded=0;orthogonalLoop=1;jettySize=auto;html=1;entryX=0;entryY=0.5;entryDx=0;entryDy=0;entryPerimeter=0;" parent="1" source="25" target="31" edge="1"><mxGeometry relative="1" as="geometry"/></mxCell><mxCell id="34" value="optimized&amp;nbsp;&lt;br&gt;bundles" style="edgeLabel;html=1;align=center;verticalAlign=middle;resizable=0;points=[];" parent="32" vertex="1" connectable="0"><mxGeometry x="-0.1725" relative="1" as="geometry"><mxPoint as="offset"/></mxGeometry></mxCell><mxCell id="36" style="edgeStyle=orthogonalEdgeStyle;rounded=0;orthogonalLoop=1;jettySize=auto;html=1;entryX=0.5;entryY=0;entryDx=0;entryDy=0;entryPerimeter=0;exitX=0.5;exitY=0;exitDx=0;exitDy=0;" parent="1" source="25" target="18" edge="1"><mxGeometry relative="1" as="geometry"><Array as="points"><mxPoint x="990" y="280"/><mxPoint x="807" y="280"/></Array></mxGeometry></mxCell><mxCell id="37" style="edgeStyle=orthogonalEdgeStyle;rounded=0;orthogonalLoop=1;jettySize=auto;html=1;entryX=0.5;entryY=0;entryDx=0;entryDy=0;entryPerimeter=0;" parent="1" source="25" target="14" edge="1"><mxGeometry relative="1" as="geometry"><Array as="points"><mxPoint x="990" y="280"/><mxPoint x="467" y="280"/></Array></mxGeometry></mxCell><mxCell id="50" value="http" style="edgeStyle=orthogonalEdgeStyle;rounded=0;orthogonalLoop=1;jettySize=auto;html=1;entryX=0.5;entryY=1;entryDx=0;entryDy=0;startArrow=blockThin;startFill=1;" parent="1" source="25" target="48" edge="1"><mxGeometry relative="1" as="geometry"/></mxCell><mxCell id="25" value="Optimizer&lt;br&gt;(Worker)" style="rounded=1;whiteSpace=wrap;html=1;" parent="1" vertex="1"><mxGeometry x="930" y="334" width="120" height="60" as="geometry"/></mxCell><mxCell id="33" style="edgeStyle=orthogonalEdgeStyle;rounded=0;orthogonalLoop=1;jettySize=auto;html=1;entryX=0;entryY=0.5;entryDx=0;entryDy=0;entryPerimeter=0;" parent="1" source="27" target="31" edge="1"><mxGeometry relative="1" as="geometry"/></mxCell><mxCell id="51" value="http" style="edgeStyle=orthogonalEdgeStyle;rounded=0;orthogonalLoop=1;jettySize=auto;html=1;entryX=0.5;entryY=1;entryDx=0;entryDy=0;startArrow=none;startFill=0;" parent="1" source="27" target="49" edge="1"><mxGeometry relative="1" as="geometry"><Array as="points"><mxPoint x="990" y="450"/><mxPoint x="1340" y="450"/></Array></mxGeometry></mxCell><mxCell id="27" value="Fallback&lt;br&gt;(Worker)" style="rounded=1;whiteSpace=wrap;html=1;" parent="1" vertex="1"><mxGeometry x="930" y="484" width="120" height="60" as="geometry"/></mxCell><mxCell id="29" value="Shadow&lt;br&gt;(Worker)" style="rounded=1;whiteSpace=wrap;html=1;" parent="1" vertex="1"><mxGeometry x="930" y="604" width="120" height="60" as="geometry"/></mxCell><mxCell id="38" value="" style="edgeStyle=orthogonalEdgeStyle;rounded=0;orthogonalLoop=1;jettySize=auto;html=1;" parent="1" source="31" target="35" edge="1"><mxGeometry relative="1" as="geometry"/></mxCell><mxCell id="31" value="collector&lt;br&gt;(RSMQ)" style="outlineConnect=0;dashed=0;verticalLabelPosition=bottom;verticalAlign=top;align=center;html=1;shape=mxgraph.aws3.queue;fillColor=#D9A741;gradientColor=none;" parent="1" vertex="1"><mxGeometry x="1110" y="490" width="73.5" height="48" as="geometry"/></mxCell><mxCell id="40" value="" style="edgeStyle=orthogonalEdgeStyle;rounded=0;orthogonalLoop=1;jettySize=auto;html=1;" parent="1" source="35" target="39" edge="1"><mxGeometry relative="1" as="geometry"/></mxCell><mxCell id="35" value="Collector&lt;br&gt;(Worker)" style="rounded=1;whiteSpace=wrap;html=1;" parent="1" vertex="1"><mxGeometry x="1230" y="484" width="120" height="60" as="geometry"/></mxCell><mxCell id="42" value="" style="edgeStyle=orthogonalEdgeStyle;rounded=0;orthogonalLoop=1;jettySize=auto;html=1;" parent="1" source="39" target="41" edge="1"><mxGeometry relative="1" as="geometry"/></mxCell><mxCell id="39" value="publisher&lt;br&gt;(Postgres)" style="shape=cylinder3;whiteSpace=wrap;html=1;boundedLbl=1;backgroundOutline=1;size=15;" parent="1" vertex="1"><mxGeometry x="1410" y="474" width="60" height="80" as="geometry"/></mxCell><mxCell id="41" value="Publisher&lt;br&gt;(Worker)" style="rounded=1;whiteSpace=wrap;html=1;" parent="1" vertex="1"><mxGeometry x="1530" y="484" width="120" height="60" as="geometry"/></mxCell><mxCell id="46" value="" style="edgeStyle=orthogonalEdgeStyle;rounded=0;orthogonalLoop=1;jettySize=auto;html=1;" parent="1" source="43" target="45" edge="1"><mxGeometry relative="1" as="geometry"/></mxCell><mxCell id="43" value="DLQ&lt;br&gt;(kafka)" style="shape=cylinder3;whiteSpace=wrap;html=1;boundedLbl=1;backgroundOutline=1;size=15;" parent="1" vertex="1"><mxGeometry x="710" y="80" width="60" height="80" as="geometry"/></mxCell><mxCell id="45" value="Consumer group lag" style="whiteSpace=wrap;html=1;" parent="1" vertex="1"><mxGeometry x="540" y="90" width="120" height="60" as="geometry"/></mxCell><mxCell id="48" value="ds-bundling&lt;br&gt;(webserver)" style="rounded=1;whiteSpace=wrap;html=1;" parent="1" vertex="1"><mxGeometry x="1110" y="160" width="120" height="60" as="geometry"/></mxCell><mxCell id="49" value="ds-bundling-fallback&lt;br&gt;(webserver)" style="rounded=1;whiteSpace=wrap;html=1;" parent="1" vertex="1"><mxGeometry x="1280" y="160" width="120" height="60" as="geometry"/></mxCell></root></mxGraphModel></diagram></mxfile>